<svg version="1" xmlns="http://www.w3.org/2000/svg" width="933.333" height="933.333" viewBox="0 0 700.000000 700.000000"><path d="M329.9.4c-.2.2-4.2.7-8.9 1-11.4.9-16.8 1.5-21 2.3-1.9.3-4.2.7-5 .8-3.8.6-9.8 1.6-12 2.1-1.4.3-3.6.7-5 1-13.8 2.7-46.1 12.3-56.4 16.8-1.7.8-5.5 2.4-8.5 3.6-9.6 3.9-24.3 11.2-36.1 17.9-12.2 7-33.3 20.8-33.8 22.2-.2.5-1 .9-1.7.9s-1.5.3-1.7.8c-.2.4-3.3 3-6.9 5.9-7 5.4-12.6 10.3-19.2 16.5-2.1 2.1-4 3.8-4.2 3.8-.5 0-18.4 18.6-23.1 24-9.1 10.3-12.5 15-11.8 16.1.4.7.3.9-.4.5-1.1-.7-9.2 9.1-9.2 11.2 0 .5-.4 1.2-.8 1.4C62 150 41 183.8 41 186.5c0 .7-.5 1.7-1 2-2.2 1.4-18.3 38.2-17.4 39.7.3.4.1.8-.4.8s-1.5 2.1-2.2 4.7c-.7 2.7-1.7 5.4-2.3 6-.5.7-.7 2.2-.4 3.3.3 1.1.2 1.8-.3 1.5-.4-.3-1.2 1.2-1.8 3.3-6 22.5-7.2 27.7-6.8 28.8.3.7.1 1.4-.5 1.6-.5.2-1.1 2.4-1.3 5-.2 2.5-.6 5-.9 5.4-.2.5-.7 3.2-1.1 6.1-.3 2.8-.8 5.7-1 6.5-.6 1.6-1.3 8.2-2.3 20.3C0 338.2.7 382 2.4 390.1c.3 1.3.8 4.6 1.1 7.4.3 2.7.7 6.1.9 7.5.3 1.4 1 5.2 1.5 8.5.6 3.3 1.4 7.1 1.7 8.5.3 1.4.7 3.6 1 5 .3 1.4 1.2 5 2 8 .9 3 1.8 6.6 2 7.9 1.3 6.8 11.8 36.5 17.1 48.1 8 17.6 16.6 33.8 18.7 35.2.6.4.8.8.3.8-.8 0 7.3 13.3 8.5 13.8.4.2.8.8.8 1.3 0 .7 7.3 11.8 10.2 15.4.5.5 3.6 4.6 7 9 3.5 4.4 6.7 8.5 7.3 9.1.5.6 4.4 4.8 8.5 9.4 8 8.8 22.8 23.5 27.1 26.9 1.5 1.1 3 1.7 3.4 1.3.5-.4.5-.2.1.5s.9 2.3 3.1 4c2 1.5 5.1 4 6.7 5.6 1.7 1.5 3.4 2.7 3.9 2.7s1.8 1.1 2.9 2.5c1.1 1.4 2.4 2.5 2.9 2.5s2 .9 3.2 2c1.2 1.1 2.7 1.8 3.5 1.5.7-.2 1.1-.1.7.4-.4.8 13.7 11.1 15.3 11.1.3 0 1.3.6 2.1 1.4 1.6 1.5 9.1 5.8 17.1 9.8 2.5 1.3 4.7 2.5 5 2.8.3.3 2.5 1.5 5 2.7 15.5 7.6 19.6 9.3 20.9 8.8.9-.3 1.2-.3.8.1-1 1 18.2 8.6 20 8 .8-.3 1.2-.2.9.2-.6 1.1 16.1 6.5 17.4 5.7.5-.3 1-.1 1 .4 0 .6.9 1.1 2.1 1.1 1.1 0 2.8.4 3.7.9 1 .5 5.1 1.7 9.2 2.5 4.1.9 8.4 1.9 9.5 2.2 1.1.2 3.6.7 5.5 1 1.9.3 5.3.9 7.5 1.4 2.2.5 6.7 1.2 10 1.5 3.3.3 6.7.8 7.5 1 4.1 1.1 21.7 1.9 40.5 1.9 26.3 0 38.3-.9 55.2-4 1.3-.3 3.5-.6 5-.8 10.4-1.4 13.2-1.9 12.9-2.5-.2-.3 1.1-.7 3-.8 3.4-.2 28-6.5 31.9-8.3 1.1-.4 5.5-2 9.9-3.5 4.3-1.5 11.1-4 15-5.6 3.9-1.7 8.4-3.5 10.1-4.2 4.5-1.9 29.9-14.8 30.5-15.5.3-.4 2.5-1.8 5-3.1 6.4-3.4 29.2-18.7 33.1-22.2 1.8-1.6 3.5-2.9 3.8-2.9.3 0 2.4-1.6 4.6-3.5 2.2-1.9 5.8-4.9 7.9-6.7 4-3.4 15.7-14.2 20.7-19.1 1.6-1.6 2.9-3.3 2.9-3.8 0-.6.5-.7 1-.4.6.3 1 .3 1-.2 0-.4 2.1-3.1 4.8-5.9 2.6-2.8 6.1-6.7 7.7-8.5 4.6-5.2 17.1-21.2 18.6-24 .8-1.3 1.7-2.6 2-2.9 4.8-4 26.4-42 34.7-61 7.9-18.2 18-49.2 20.7-63.5.2-1.1.8-4.6 1.5-7.8.6-3.1.8-6.2.5-6.7-.3-.6-.2-1 .3-1 .6 0 1.5-3.9 2.2-8.8.6-4.8 1.3-10.3 1.6-12.2.2-1.9.7-4.3 1-5.3.3-.9 0-1.7-.7-1.7-.8 0-.8-.4-.1-1.3 2.4-2.9 2.1-58.6-.3-73.2-.3-1.7-.7-4.4-.9-6-3.8-30.3-13.6-64.7-27-95.1-4.3-9.9-9.3-19.4-9.8-18.9-.2.2-.4-.4-.5-1.3-.3-2.8-21.7-37.9-27.2-44.4-.6-.7-3.9-4.9-7.4-9.3-3.4-4.4-7.1-9-8.2-10.1-1.1-1.2-3.6-4-5.5-6.4-1.9-2.3-8.6-9.2-14.9-15.3-6.2-6.2-12.1-12-13-13-.8-.9-1.9-1.7-2.3-1.7-.4 0-2-1.3-3.5-2.8-1.6-1.6-5.9-5.3-9.8-8.3-3.8-3-7.1-5.7-7.3-6.1-.2-.5-1-.8-1.8-.8s-1.4-.3-1.4-.8c0-.4-2.5-2.3-5.5-4.2-3-1.9-5.5-3.8-5.5-4.3 0-.4-.6-.7-1.3-.7-.7 0-2.3-.9-3.5-2-1.2-1.1-2.3-2-2.5-2-.3 0-5.7-3.2-12.1-7-6.5-3.9-12.3-7-13.1-7-.7 0-1.5-.3-1.7-.8-.1-.4-3.4-2.2-7.3-4.1-3.8-1.8-8.1-3.9-9.5-4.6-14-7.2-60.1-22.4-63.7-21.1-.8.3-1.2.2-.9-.3.6-1-18.8-4.9-35.4-7.1C381.5 1.3 374.8.8 354.2.5c-12-.2-20.4.1-20.8.7-.4.5-1.1.5-1.8-.1s-1.5-.9-1.7-.7zm-9.6 31.9c.6-.9 53.1-.8 61.2.1 37.7 4.2 72.2 13.9 104.5 29.3 6.3 3 12.3 5.5 13.2 5.6.9.1 1.5.4 1.2.8-.4.7 1.2 1.6 3 1.7.5 0 1.2.4 1.5.9.8 1.2 13 8.3 14.2 8.3.5 0 .9.4.9.9s.9 1.3 2 1.6c1.1.3 2.6 1.2 3.3 1.8.7.7 2 1.6 2.9 2.2 3.4 2.2 14.4 10 15.4 10.9.6.6 2.6 2.2 4.4 3.6 11.4 8.6 34.1 30.3 42.5 40.5 2 2.5 4.1 5 4.8 5.7.7.7 2.4 2.9 3.9 5 1.5 2 3.3 4.2 4 5 .7.7 2.9 3.6 4.7 6.3 1.9 2.8 3.7 5.2 4 5.5.4.3 1.1 1.4 1.8 2.5s4.4 7 8.2 13.1c6.5 10.4 15.7 27.8 19.6 36.9 7.4 17.4 11.4 28.5 15.8 44.5 2.9 10.6 4.3 16.9 8.1 36.5.2 1.1.7 5.5 1.1 9.7.4 4.5 1.2 7.8 1.8 7.8.8 0 .8.3.1 1-.6.6-.8 3.1-.3 6.3.7 5.6.4 48.6-.4 52.7-.3 1.4-.8 5.6-1.2 9.3-.3 3.7-.8 7.6-.9 8.5-.7 3.6-1.6 8.8-2 10.8-.2 1.2-.7 3.7-1 5.5-1.9 12.1-9.9 39.6-14.6 50.4-1 2.2-2.1 5.1-2.4 6.5-2.1 7.2-16.8 35.9-24.8 48.4-2.1 3.2-3.5 6.4-3.1 7 .3.6.3.8-.2.4-.4-.4-3.2 2.7-6.1 7-2.9 4.2-5.8 8.3-6.5 9.1-.7.7-2.8 3.4-4.7 6-1.9 2.5-4.2 5.3-5.1 6.2-.9.9-3.8 4.3-6.6 7.5-2.7 3.1-8.4 9.2-12.5 13.3-4.1 4.2-7.4 7.9-7.2 8.3.1.5-.2.7-.6.5-.7-.2-8.4 6.1-15.8 12.8-1.2 1.1-3 2.5-4 3.2-1.1.6-1.8 1.6-1.6 2.3.1.6-.2.9-.7.6-.7-.5-2.4.5-7.6 4.7-10 7.9-28.6 19.2-46.7 28.3-6.9 3.5-12.8 6.4-13.1 6.4-.2 0-2.6 1-5.3 2.2-2.7 1.2-5.3 2.3-5.9 2.4-.5.1-2.8 1-5 2s-4.4 1.8-5 2c-.5.1-5.3 1.6-10.5 3.2-16.5 5.4-31.4 8.7-57 12.7-16 2.6-61.4 2.6-79.9.1-9.8-1.4-11.9-1.7-14-2.1-1.2-.2-3-.6-3.9-.9-.9-.3-3.7-.8-6.1-1.1-2.3-.4-5.4-1-6.7-1.5-1.3-.5-2.4-.7-2.4-.5 0 .2-1.1 0-2.6-.5-1.4-.6-3.8-1.2-5.3-1.5-8.3-1.5-37.4-11.8-50.9-18.1-4.1-1.9-7.7-3.4-8.1-3.4-.4 0-1.2-.5-1.9-1.2-.6-.6-1.7-1.3-2.4-1.4-1.1-.1-7.9-3.9-22.8-12.5-1.4-.8-2.7-1.6-3-1.9-1.2-1.2-7-5-7.7-5-.4-.1-2.3-1.4-4.2-3-1.9-1.6-3.8-2.7-4.3-2.4-.4.3-.8.1-.8-.4 0-.4-3.9-3.8-8.8-7.5-4.8-3.6-10.1-8-11.7-9.7-1.6-1.6-3.2-3-3.6-3-.8 0-25.4-24.6-27.9-27.9-.9-1.1-2.9-3.5-4.6-5.3-1.6-1.8-4.5-5.3-6.4-7.8-1.9-2.5-4-5.2-4.7-6-11.3-14.2-31-47.9-37.3-63.7-.7-1.8-1.7-3-2.3-2.6-.5.3-.7.2-.4-.4.3-.5-1.7-7.2-4.5-14.9-7.4-20.2-14.3-47.2-16.2-62.9-.4-2.8-.9-7.3-1.3-10-.3-2.8-.6-5.8-.5-6.8 0-1-.4-1.5-1-1.1-.7.5-.8.2-.3-.7.9-1.3.8-4.7-.1-11.9-.3-1.9-.5-4-.5-4.5-.2-2.4 1.1-39.3 1.5-42 .2-1.7.6-5.7 1-9 .9-7.7 3.4-23 4.6-27.5.5-1.9 1.2-5.1 1.5-7 1.9-11.1 11-38.5 18.1-54.5 1-2.2 1.8-4.2 1.9-4.5.6-2.9 14.9-29.3 20.2-37.2 1.4-2 2.2-4.2 1.8-4.8-.3-.6-.2-.9.3-.8.6.2 3.4-3.1 6.3-7.2s7-9.6 9.1-12.1c2.1-2.6 3.8-4.9 3.8-5.3 0-.3 1.2-1.8 2.7-3.4 3.5-3.7 7.3-8.1 7.3-8.6 0-.2 4.6-5 10.3-10.7 13.1-13.3 22.1-21.2 38.7-34.2.9-.7 3.6-2.5 6-4.2 2.5-1.6 5.3-3.8 6.3-4.9.9-1 1.7-1.6 1.7-1.2 0 .3 3.5-1.6 7.8-4.2C193.3 72 217.4 59 219.4 59c.2 0 3-1.2 6.2-2.7 3.3-1.5 6.2-2.7 6.7-2.9.4-.1.9-.3 1.2-.4.3-.1.8-.3 1.3-.5.4-.1 1.4-.5 2.2-.8 3.9-1.7 19.2-6.7 20.5-6.7.8 0 1.5-.4 1.5-.9s.6-.8 1.3-.8c2.4.3 12.7-2.6 12.7-3.5 0-.5.5-.6 1-.3.6.4 3.9 0 7.3-.9 6-1.5 8-1.9 16.1-3.1 2.1-.4 4.6-.8 5.5-1 .9-.1 4.6-.6 8.4-1 3.9-.4 6.7-1.2 6.7-1.9 0-.6.4-.6.9.3.5.7 1.1.9 1.4.4z"/><path d="M344.8 172.5c-.1.1-4.8.6-10.3.9-5.5.4-11.1.9-12.5 1.1-1.4.2-6.1.7-10.5 1-4.4.3-9.6.8-11.5 1-1.9.2-6.9.6-11 1-4.1.3-9.1.8-11 1-1.9.3-6.4.7-10 1-3.6.2-8.5.7-11 .9-2.5.2-8.2.7-12.7 1.1-11.8 1-11.8 1-11.5 3.2.3 2.4 11.8 37.3 12.5 37.9.5.5 20.8 1 56.5 1.5 15.7.2 16.2.2 16.3 2.3 0 1.1.2 2.8.3 3.6.3 1.4 1.1 8.5 2.2 19 .2 2.5.6 6.3.9 8.5.3 2.2.7 6.2 1 9 .3 2.7.7 6.8 1 9 .3 2.2.7 6.2 1 9 .3 2.7.7 6.6 1 8.5.3 1.9.7 6.2 1.1 9.5.3 3.3.7 7.1.9 8.5.2 1.4.6 5.4 1 9 .3 3.6.8 7.6 1 9 .2 1.4.7 5.4 1 9 .4 3.6.8 7.6 1 9 .2 1.4 1.1 9.1 2 17.2l1.7 14.7-18.5 29.8c-10.2 16.4-30.9 49.8-46.1 74.2-15.1 24.5-27.4 44.6-27.3 44.8.2.1 9.7.5 21.2.8 11.6.3 28.4.7 37.5 1 9.1.2 26.9.7 39.5 1 12.7.3 29.1.8 36.5 1 7.4.2 25.9.7 41 1 15.1.4 31.4.8 36.3 1 4.8.1 8.7.1 8.7-.2 0-.5-18.5-29.3-66.4-103.3l-32.7-50.5.6-10c.4-5.5.8-11.6 1-13.5.2-1.9.6-7.8 1-13s.8-11.1 1-13c.2-1.9.6-7.3 1-12 .3-4.7.8-10.1 1-12 .2-1.9.7-7.8 1-13 .3-5.2.8-11.3 1-13.5.1-2.2.6-8.3 1-13.5.3-5.2.8-10.6 1-12 .2-1.4.7-7.2 1.1-13 .4-5.8.7-11.6.8-13l.2-2.5 36.5.3 36.4.3 5.7-18.8c3.1-10.3 5.5-18.9 5.3-19.1-.3-.4-2.9-.8-9.5-1.7-3-.4-6.3-.9-7.2-1-.9-.2-4.1-.6-7-.9-2.9-.4-6.2-.8-7.3-1-1.1-.2-4.7-.7-8-1.1-3.2-.3-6.2-.8-6.5-1-.3-.1-3.9-.6-8-1s-7.7-.8-8-1c-.3-.2-3-.6-6-.9-3-.4-6.6-.9-8-1.1-1.4-.2-4.9-.7-7.9-1-3-.4-6.1-.8-7-1-.9-.1-5.9-.8-11.1-1.5-5.2-.6-10.5-1.3-11.7-1.5-1.2-.2-2.3-.2-2.5 0z"/><path d="M212.1 193.1c-5.2 11.4-17.5 37.6-25 53.3-3.4 7-6.1 13-6.1 13.1 0 .2-3.6 7.8-8 17s-8 16.8-8 17c0 .2-2.7 5.9-5.9 12.7l-5.9 12.3-.5 27.6-.5 27.6 14.1 10.9c7.8 6 20.4 15.8 28.1 21.7 7.6 6 14.9 11.5 16 12.2 1.9 1.2 3.7.3 21.6-12 10.7-7.3 23.7-16.2 28.8-19.7 5.2-3.5 10.4-7.1 11.6-8l2.3-1.7-.4-28.9-.3-29-15.4-35.8c-8.4-19.8-21.3-49.9-28.6-66.9-7.2-17.1-13.4-31.2-13.6-31.4-.2-.2-2.1 3.4-4.3 8zm15.9 64.1c6.8 24.9 13.2 48.4 14.2 52.3 1 3.8 2.1 7.8 2.4 8.8.5 1.6-1.1 1.7-29.8 1.1-16.6-.3-30.3-.6-30.5-.7-.4-.4 30.2-106.7 30.8-106.7.3 0 6.1 20.4 12.9 45.2zM476 194.1c-.5 1.3-5.6 14.3-11.3 28.9-5.7 14.6-17 43.4-25.1 64l-14.8 37.4.6 7.6c.3 4.1.8 15.8 1.2 26 .7 19.3.9 22.9 1.5 23.4.2.1 4.5 3.1 9.4 6.6 5 3.6 9.5 6.8 10 7.2 1.7 1.4 9.5 7.1 26.7 19.6L491 427l28.7-21.6 28.8-21.5-.1-5.2c-.1-6.2-1.2-29.3-2-43.2l-.6-10-9.5-19c-5.3-10.5-9.9-19.5-10.3-20-.4-.6-8.9-17.2-19-37-16.7-32.8-28.8-56.4-29.6-57.4-.2-.2-.8.7-1.4 2zm3.3 25.1c.2 1.3 3.5 10.8 7.2 21.3 13.1 37.4 14.8 42.1 17.5 50.5 1.6 4.7 4.9 14 7.3 20.7 2.5 6.8 4.2 12.4 3.8 12.5-.3 0-14.2.2-30.9.3-27.1.1-30.2 0-29.7-1.4.4-1.6 4.8-21.9 7-32.5.3-1.6 3.9-18.4 8-37.4s7.5-34.9 7.5-35.4c0-1.8 1.8-.7 2.3 1.4z"/></svg>